<?xml version="1.0" encoding="utf-8"?>
<!-- Generator: Adobe Illustrator 22.1.0, SVG Export Plug-In . SVG Version: 6.00 Build 0)  -->
<svg version="1.1" id="Слой_1" xmlns="http://www.w3.org/2000/svg" xmlns:xlink="http://www.w3.org/1999/xlink" x="0px" y="0px"
	 viewBox="0 0 2244 1856" style="enable-background:new 0 0 2244 1856;" xml:space="preserve">
<style type="text/css">
	.st0{fill:#e7bc85;}
	.st1{fill:#e7bc85;}
</style>
<path class="st0" d="M2081.3,0c0,0-1366,0-1549.3,0C430,7.3,380.7,80.3,372,156.7c0,0,0,890-1.3,989.3
	c8.7,91.3,54.8,152.5,158,168.7l1072.4,0.9c0,0,181.6,187.1,239.3,246.8c49.9,41.4,92.2-9.1,89-38.7l0.3-210.7c0,0,27.7,1,150.3,0.3
	c115.7-4,162.3-100.3,164-168c0,0,0-860.7,0-979.7C2235,46,2148.7,4,2081.3,0z M774.7,838C689.2,838,620,768,620,681.7
	s69.2-156.3,154.7-156.3s154.7,70,154.7,156.3S860.1,838,774.7,838z M1314.7,838c-85.4,0-154.7-70-154.7-156.3
	s69.2-156.3,154.7-156.3c85.4,0,154.7,70,154.7,156.3S1400.1,838,1314.7,838z M1853.8,838c-85.4,0-154.7-70-154.7-156.3
	s69.2-156.3,154.7-156.3c85.4,0,154.7,70,154.7,156.3S1939.2,838,1853.8,838z"/>
<path class="st1" d="M205,1682c-64.5,0.5-108.5,0-108.5,0c-22.7-3-89-20.5-96.5-106.5c0-137,0-655,0-655
	c5.8-46.5,34.2-99,105.5-104.5c76.5,0.5,172,0,172,0v350c12.5,127.7,98.8,238,251.8,248.7c209.3-0.7,700-0.7,700-0.7v168.7
	c0,38.3-37.7,105-119.7,102c-119.7-0.3-688.3,0-688.3,0C309.3,1800,262,1848.2,262,1848.2c-15.1,12.6-48.9,11.5-56.5-22.8
	C205.5,1765.5,205,1682,205,1682z"/>
</svg>
