<?xml version="1.0" encoding="utf-8"?>
<!-- Generator: Adobe Illustrator 22.1.0, SVG Export Plug-In . SVG Version: 6.00 Build 0)  -->
<svg version="1.1" id="Слой_1" xmlns="http://www.w3.org/2000/svg" xmlns:xlink="http://www.w3.org/1999/xlink" x="0px" y="0px"
	 viewBox="0 0 2067 2411" style="enable-background:new 0 0 2067 2411;" xml:space="preserve">
<style type="text/css">
	
	.st1{fill:#fff;}
</style>

<path class="st1" d="M856.7,347.3l2.1-204.8l-94,1.3C705,139.3,693.3,7.3,767.5,0c113.3,0,534.2,0,534.2,0c59.7,2,73.7,133.7,0,143
	c-83.3,0.3-93,0.3-93,0.3l-0.7,213L856.7,347.3z"/>
<path class="st1" d="M1032.5,624C626.8,624,298,956.2,298,1366s328.8,742,734.5,742s734.5-332.2,734.5-742S1438.2,624,1032.5,624z
	 M1033.5,1332.7l-552.4,212.9c-93.1-383.5,159-766.9,552.4-766.9V1332.7z"/>
<path class="st1" d="M1033.5,325C462.7,325,0,792,0,1368s462.7,1043,1033.5,1043S2067,1944,2067,1368S1604.3,325,1033.5,325z
	 M1031.7,2233.3c-473.2,0-856.8-388.1-856.8-866.8s383.6-866.8,856.8-866.8s856.8,388.1,856.8,866.8S1504.9,2233.3,1031.7,2233.3z"
	/>
<path class="st1" d="M196.5,624C282.3,522.7,408,418.7,557,348C360.5,188.5,99.5,391.5,196.5,624z"/>
</svg>
