<?xml version="1.0" encoding="utf-8"?>
<!-- Generator: Adobe Illustrator 22.1.0, SVG Export Plug-In . SVG Version: 6.00 Build 0)  -->
<svg version="1.1" id="stick" xmlns="http://www.w3.org/2000/svg" xmlns:xlink="http://www.w3.org/1999/xlink" x="0px" y="0px"
	 viewBox="0 0 38.7 68.3" style="enable-background:new 0 0 38.7 68.3;" xml:space="preserve">
<style type="text/css">
	.st0{fill-rule:evenodd;clip-rule:evenodd;fill:#999999;}
</style>
<path class="st0" d="M11.9,62.8c-0.2-0.1-0.3-0.4-0.4-0.8H1.5c0.7,1.1,1.3,1.8,1.8,2.2h10.3C12.7,63.8,12.1,63.3,11.9,62.8
	L11.9,62.8z M10.7,59H0.4c0.2,0.7,0.4,1.4,0.8,2.1h10C10.9,60.2,10.8,59.5,10.7,59L10.7,59z M10.5,57.2v-1.1H0c0,0.8,0.1,1.5,0.2,2
	h10.4C10.6,57.8,10.5,57.5,10.5,57.2L10.5,57.2z M13.2,67.9c1.9,0.2,4,0.3,6.2,0.3c2.3,0,4.3-0.1,6.1-0.3H13.2L13.2,67.9z
	 M10.5,53.1H0v1.9h10.5V53.1L10.5,53.1z M21.5,65c-0.4,0.1-0.7,0.1-1.1,0.1H18c-0.4,0-0.7,0-1.1-0.1H4.3c0.7,0.4,1.3,0.8,1.6,0.9
	c0.8,0.4,1.8,0.8,2.9,1.2h21.1c1.4-0.4,2.4-0.8,2.9-1.1c0.6-0.3,1.1-0.6,1.5-1H21.5L21.5,65z M10.5,50.2H0v1.8h10.5V50.2L10.5,50.2z
	 M10.5,47.3H0V49h10.5V47.3L10.5,47.3z M10.5,44.2H0V46h10.5V44.2L10.5,44.2z M10.5,41.3H0V43h10.5V41.3L10.5,41.3z M0.4,38.4
	c-0.2,0.8-0.3,1.3-0.3,1.6h10.4c0.1-0.2,0.1-0.4,0.1-0.8c0-0.4,0-0.6,0.1-0.8H0.4L0.4,38.4z M27.3,62c-0.2,0.3-0.4,0.6-0.4,0.8
	c-0.4,0.6-1,1-1.8,1.4h10.3c0.7-0.5,1.2-1.2,1.7-2.2H27.3L27.3,62z M1.3,35.4l-0.6,1.5h10.2c0.2-0.7,0.3-1.2,0.4-1.5H1.3L1.3,35.4z
	 M28,59c-0.1,0.7-0.2,1.4-0.4,2.1h9.9l0.4-1c0.1-0.3,0.2-0.7,0.4-1.1H28L28,59z M28,56.1v1.1c0,0.3,0,0.6-0.1,0.9h10.4
	c0.1-0.6,0.1-1.2,0.3-2H28L28,56.1z M3.6,32.5c-0.4,0.3-0.8,0.8-1.3,1.4H12c0.3-0.6,1.2-1,2.7-1.4H3.6L3.6,32.5z M38.7,53.1H28v1.9
	h10.6V53.1L38.7,53.1z M38.7,50.2H28v1.8h10.6V50.2L38.7,50.2z M38.7,47.3H28V49h10.6V47.3L38.7,47.3z M38.7,44.2H28V46h10.6V44.2
	L38.7,44.2z M38.7,41.3H28V43h10.6V41.3L38.7,41.3z M38.7,29.6H9.6c-1.3,0.3-2.5,0.8-3.7,1.3h32.8V29.6L38.7,29.6z M38.7,38.4H27.9
	c0.1,0.3,0.1,0.6,0.1,0.8V40h10.7V38.4L38.7,38.4z M38.7,35.4H27.3c0.2,0.7,0.3,1.2,0.4,1.5h11V35.4L38.7,35.4z M38.7,32.5H23.8
	c1.1,0.3,1.9,0.6,2.4,1c0.1,0.1,0.2,0.3,0.4,0.4h12.1V32.5L38.7,32.5z M38.7,26.5H28v1.3h10.6V26.5L38.7,26.5z M38.7,23.6H28v1.3
	h10.6V23.6L38.7,23.6z M38.7,20.7H28v1.2h10.6V20.7L38.7,20.7z M38.7,17.7H28v1.1h10.6V17.7L38.7,17.7z M38.7,14.8H28v1h10.6V14.8
	L38.7,14.8z M38.7,11.8H28v1h10.6V11.8L38.7,11.8z M38.7,8.8H28v1h10.6V8.8L38.7,8.8z M38.7,5.9H28v0.9h10.6V5.9L38.7,5.9z
	 M38.7,2.9H28v0.8h10.6V2.9L38.7,2.9z M37.6,0h-8.5c-0.4,0.3-0.6,0.6-0.7,0.8h9.8C38,0.4,37.8,0.2,37.6,0z"/>
</svg>
