<svg xmlns="http://www.w3.org/2000/svg" width="51.78" height="51.78" viewBox="0 0 51.78 51.78">
  <path d="M51.43 25.39l-4.42-2.68a.8.8 0 0 1-.31-.47c-.06-.32-.13-.64-.2-.96a.817.817 0 0 1 .12-.55l3.06-4.17a.516.516 0 0 0-.37-.89l-5.1-.79a.8.8 0 0 1-.47-.31c-.19-.29-.38-.58-.58-.86a.759.759 0 0 1-.11-.55l1.23-5.02a.52.52 0 0 0-.68-.69l-5.02 1.23a.734.734 0 0 1-.56-.1c-.26-.19-.53-.37-.81-.55a.8.8 0 0 1-.31-.47l-.77-5.11a.526.526 0 0 0-.9-.37l-4.17 3.05a.71.71 0 0 1-.55.12c-.33-.08-.67-.15-1.01-.21a.8.8 0 0 1-.47-.31L26.35.31a.514.514 0 0 0-.96 0l-2.68 4.42a.8.8 0 0 1-.47.31c-.32.06-.64.12-.96.2a.817.817 0 0 1-.55-.12l-4.16-3.06a.522.522 0 0 0-.9.37l-.79 5.1a.76.76 0 0 1-.31.47c-.29.19-.58.38-.86.58a.759.759 0 0 1-.55.11L8.14 7.45a.526.526 0 0 0-.69.69l1.23 5.02a.7.7 0 0 1-.1.55c-.19.27-.37.54-.55.82a.8.8 0 0 1-.47.31l-5.11.77a.526.526 0 0 0-.37.9l3.05 4.16a.743.743 0 0 1 .12.56c-.08.33-.15.67-.21 1.01a.8.8 0 0 1-.31.47L.31 25.39a.514.514 0 0 0 0 .96l4.42 2.68a.8.8 0 0 1 .31.47c.06.32.12.64.2.96a.817.817 0 0 1-.12.55l-3.06 4.16a.522.522 0 0 0 .37.9l5.1.79a.721.721 0 0 1 .47.31c.19.29.38.57.58.85a.8.8 0 0 1 .11.56L7.45 43.6a.526.526 0 0 0 .69.69l5.02-1.24a.785.785 0 0 1 .56.11c.26.19.53.37.81.55a.8.8 0 0 1 .31.47l.77 5.11a.524.524 0 0 0 .9.37l4.17-3.05a.71.71 0 0 1 .55-.12c.33.08.67.15 1.01.21a.8.8 0 0 1 .47.31l2.68 4.42a.514.514 0 0 0 .96 0l2.68-4.42a.8.8 0 0 1 .47-.31c.32-.06.64-.12.96-.2a.817.817 0 0 1 .55.12l4.16 3.06a.522.522 0 0 0 .9-.37l.79-5.1a.8.8 0 0 1 .31-.47c.29-.19.58-.38.86-.58a.759.759 0 0 1 .55-.11l5.02 1.24a.526.526 0 0 0 .69-.69l-1.23-5.02a.71.71 0 0 1 .1-.55c.19-.27.37-.54.55-.81a.721.721 0 0 1 .47-.31l5.11-.78a.518.518 0 0 0 .37-.89l-3.05-4.17a.845.845 0 0 1-.12-.56c.08-.33.15-.67.21-1.01a.8.8 0 0 1 .31-.47l4.42-2.68a.514.514 0 0 0 0-.96z" fill="#ef694b" fill-rule="evenodd"/>
</svg>
